Coordinates
version=1
nRows=26
nColumns=11
inDegrees=yes

Units are S.I. units (second, meters, Newtons, ...)
If the header above contains a line with 'inDegrees', this indicates whether rotational values are in degrees (yes) or radians (no).

endheader
time	pelvis_tilt	pelvis_tx	pelvis_ty	hip_flexion_l	hip_flexion_r	knee_angle_l	knee_angle_r	ankle_angle_l	ankle_angle_r	lumbar_extension
      7.89000000	     48.04126847	      0.65657553	      1.11559680	     20.84383505	     16.97820107	    -63.96761388	    -57.32262628	    -23.18846570	    -26.73024178	    -47.81446609
      7.90000000	     48.05174678	      0.65659545	      1.11558243	     20.86821609	     16.97139404	    -63.83312168	    -57.33113668	    -23.18717785	    -26.73271490	    -47.81092356
      7.91000000	     48.05310717	      0.65661099	      1.11557714	     20.87033754	     16.97569311	    -63.64227839	    -57.34340456	    -23.19029154	    -26.72934805	    -47.80774270
      7.92000000	     48.05823303	      0.65661827	      1.11557389	     20.87471943	     16.97750665	    -63.46250651	    -57.36445556	    -23.19325454	    -26.72631165	    -47.81024111
      7.93000000	     48.07251208	      0.65662759	      1.11558117	     20.86943196	     16.97692251	    -63.27880689	    -57.39144000	    -23.20110376	    -26.71813110	    -47.80953367
      7.94000000	     48.07444475	      0.65664439	      1.11557122	     20.87465958	     16.97478040	    -63.08592039	    -57.39687833	    -23.20409181	    -26.71200223	    -47.81629972
      7.95000000	     48.08026597	      0.65663121	      1.11553891	     20.88779931	     16.97430999	    -62.90687336	    -57.40939513	    -23.19082250	    -26.70564906	    -47.82385841
      7.96000000	     48.08349744	      0.65665341	      1.11554264	     20.87900360	     16.97375833	    -62.69511922	    -57.42316086	    -23.18960837	    -26.69337929	    -47.81550263
      7.97000000	     48.13382881	      0.65662016	      1.11556965	     20.83395766	     16.92101465	    -62.50896447	    -57.43507628	    -23.06973266	    -26.61782808	    -47.86315581
      7.98000000	     48.12693743	      0.65661615	      1.11556341	     20.84796778	     16.92740398	    -62.31478012	    -57.44191156	    -23.06207241	    -26.61264180	    -47.86820254
      7.99000000	     48.12481755	      0.65665500	      1.11555958	     20.84987811	     16.92013291	    -62.12354239	    -57.43348711	    -23.05074210	    -26.60957988	    -47.85505515
      8.00000000	     48.14733488	      0.65663043	      1.11556883	     20.82824623	     16.90430651	    -61.92958613	    -57.44790261	    -22.92368390	    -26.59766263	    -47.87535264
      8.01000000	     48.14383872	      0.65663833	      1.11552685	     20.83171311	     16.91346307	    -61.73971392	    -57.45464553	    -22.89068181	    -26.59493852	    -47.87492915
      8.02000000	     48.16472975	      0.65665238	      1.11557226	     20.79641437	     16.88947841	    -61.55236045	    -57.45747696	    -22.63341849	    -26.63671739	    -47.88164217
      8.03000000	     48.31733146	      0.65679189	      1.11552619	     20.46394454	     16.72318008	    -60.52849804	    -57.52322917	    -24.15524181	    -26.47259060	    -48.01342971
      8.04000000	     48.31284965	      0.65679320	      1.11552169	     20.47489423	     16.72706034	    -60.37105404	    -57.52751247	    -24.14041568	    -26.47093598	    -48.01423660
      8.05000000	     48.33156142	      0.65681180	      1.11547294	     20.45988279	     16.71511036	    -60.23405144	    -57.52996180	    -23.93587981	    -26.52294823	    -48.02548485
      8.06000000	     48.32642596	      0.65681262	      1.11545557	     20.46330172	     16.70936620	    -60.07021713	    -57.52832101	    -23.91741122	    -26.51586382	    -48.02530613
      8.07000000	     48.32743746	      0.65682545	      1.11544638	     20.45789212	     16.71548161	    -59.92706636	    -57.52128602	    -23.89929642	    -26.51974606	    -48.02511627
      8.08000000	     48.35133295	      0.65681245	      1.11542029	     20.43449634	     16.68603747	    -59.80010424	    -57.54299096	    -23.56538159	    -26.49002300	    -48.04738905
      8.09000000	     48.34410191	      0.65680470	      1.11540567	     20.42932496	     16.69324567	    -59.65403188	    -57.53560420	    -23.55870160	    -26.49075166	    -48.04860628
      8.10000000	     48.36169940	      0.65677220	      1.11541161	     20.41120933	     16.67622782	    -59.54418104	    -57.52700425	    -23.26769561	    -26.53783457	    -48.06542312
      8.11000000	     48.36581907	      0.65677016	      1.11540155	     20.43338500	     16.67370234	    -59.49846751	    -57.53094218	    -23.26121427	    -26.53698021	    -48.08233119
      8.12000000	     48.39453068	      0.65673392	      1.11541604	     20.40092908	     16.64824502	    -59.43303708	    -57.50943146	    -22.94711268	    -26.62004854	    -48.10903928
      8.13000000	     48.39270749	      0.65669795	      1.11538572	     20.42256828	     16.65131148	    -59.36552023	    -57.50420439	    -22.93350886	    -26.62108501	    -48.11869968
      8.14000000	     48.36384721	      0.65671712	      1.11537086	     20.46168667	     16.68279885	    -59.34451221	    -57.52391920	    -22.61180657	    -26.55823114	    -48.08307716
